# xmcd
#
# Track frame offsets: 
#        150
#        14791
#        31301
#        46494
#        62161
#
# Disc length: 1043 seconds
#
# Revision: 0
# Processed by: cddbd v1.5.2PL0 Copyright (c) Steve Scherf et al.
# Submitted via: ExactAudioCopyFreeDBPlugin 1.0
#
DISCID=41041105
DTITLE=Beyonce - I Am... Sasha Fierce [CD2]
DYEAR=2009
DGENRE=R&B
TTITLE0=Single Ladies (Put A Ring On It)
TTITLE1=Radio
TTITLE2=Diva
TTITLE3=Sweet Dreams
TTITLE4=Video Phone
EXTD=
EXTT0=
EXTT1=
EXTT2=
EXTT3=
EXTT4=
PLAYORDER=
